<svg width="32" height="28" viewBox="0 0 32 28" fill="none" xmlns="http://www.w3.org/2000/svg">
<path d="M17.7393 0.0695822C17.4901 0.173547 17.3275 0.416153 17.3275 0.685376V7.98825L0.666404 7.98825C0.298527 7.98825 -6.10352e-05 8.28684 -6.10352e-05 8.65471L-6.10352e-05 19.3178C-6.10352e-05 19.6857 0.298527 19.9843 0.666404 19.9843H17.3275V27.3152C17.3275 27.5844 17.4902 27.827 17.7381 27.931C17.9873 28.0336 18.2739 27.9776 18.4645 27.787L31.8041 14.4915C31.9293 14.3662 32 14.1969 32 14.0196C32 13.8424 31.9293 13.673 31.8054 13.5478L18.4658 0.213533C18.2751 0.0229094 17.9886 -0.0343831 17.7393 0.0695822Z" fill="url(#paint0_linear_244_2)"/>
<defs>
<linearGradient id="paint0_linear_244_2" x1="-8.25815" y1="27.9816" x2="3.18969" y2="-32.1099" gradientUnits="userSpaceOnUse">
<stop stop-color="#647B64"/>
<stop offset="1" stop-color="#6ADD6A"/>
</linearGradient>
</defs>
</svg>
