<svg width="48" height="48" viewBox="0 0 48 48" fill="none" xmlns="http://www.w3.org/2000/svg">
<rect width="48" height="48" rx="8" fill="white"/>
<path d="M16 25.5V30.9C16 32.6 17.39 34 19.1 34H28.9C30.6 34 32 32.61 32 30.9V25.5C32 25.22 31.78 25 31.5 25H16.5C16.22 25 16 25.22 16 25.5ZM20.88 30.38C20.65 30.62 20.33 30.75 20 30.75C19.92 30.75 19.84 30.74 19.76 30.73C19.68 30.71 19.6 30.69 19.52 30.65C19.45 30.62 19.37 30.58 19.31 30.54C19.24 30.49 19.17 30.44 19.12 30.38C18.88 30.15 18.75 29.83 18.75 29.5C18.75 29.17 18.88 28.85 19.12 28.62C19.17 28.56 19.24 28.51 19.31 28.46C19.37 28.42 19.45 28.38 19.52 28.35C19.6 28.31 19.68 28.29 19.76 28.27C20.16 28.19 20.59 28.33 20.88 28.62C21.12 28.85 21.25 29.17 21.25 29.5C21.25 29.83 21.12 30.15 20.88 30.38ZM28.88 30.38C28.83 30.44 28.76 30.49 28.69 30.54C28.63 30.58 28.55 30.62 28.48 30.65C28.4 30.69 28.32 30.71 28.25 30.73C28.16 30.74 28.08 30.75 28 30.75C27.92 30.75 27.84 30.74 27.76 30.73C27.68 30.71 27.6 30.69 27.52 30.65C27.45 30.62 27.37 30.58 27.31 30.54C27.24 30.49 27.17 30.44 27.12 30.38C26.88 30.15 26.75 29.83 26.75 29.5C26.75 29.17 26.88 28.85 27.12 28.62C27.17 28.56 27.24 28.51 27.31 28.46C27.37 28.42 27.45 28.38 27.52 28.35C27.6 28.31 27.68 28.29 27.76 28.27C27.92 28.24 28.08 28.24 28.25 28.27C28.32 28.29 28.4 28.31 28.48 28.35C28.55 28.38 28.63 28.42 28.69 28.46C28.76 28.51 28.83 28.56 28.88 28.62C29.12 28.85 29.25 29.17 29.25 29.5C29.25 29.83 29.12 30.15 28.88 30.38Z" fill="#647B64"/>
<path d="M28.9 14H19.1C17.39 14 16 15.39 16 17.1V19.5C16 19.78 16.22 20 16.5 20H31.5C31.78 20 32 19.78 32 19.5V17.1C32 15.39 30.61 14 28.9 14ZM26.5 17.75H21.5C21.09 17.75 20.75 17.41 20.75 17C20.75 16.59 21.09 16.25 21.5 16.25H26.5C26.91 16.25 27.25 16.59 27.25 17C27.25 17.41 26.91 17.75 26.5 17.75Z" fill="#647B64"/>
<path d="M31.5 24H16.5C16.22 24 16 23.78 16 23.5V21.5C16 21.22 16.22 21 16.5 21H31.5C31.78 21 32 21.22 32 21.5V23.5C32 23.78 31.78 24 31.5 24Z" fill="#647B64"/>
</svg>
