<svg width="48" height="48" viewBox="0 0 48 48" fill="none" xmlns="http://www.w3.org/2000/svg">
<rect width="48" height="48" rx="8" fill="white"/>
<path d="M31.8283 21.0716C31.7116 21.0716 31.595 21.0483 31.4783 21.0016C31.035 20.8033 30.8367 20.29 31.0233 19.8466C31.245 19.345 31.1167 18.61 30.7083 18.0033C30.3 17.385 29.6817 16.965 29.1217 17C28.6083 17 28.2467 16.615 28.235 16.1366C28.235 15.6466 28.62 15.2616 29.0983 15.25C30.3 15.2266 31.4317 15.915 32.1667 17.0233C32.9133 18.1433 33.0883 19.485 32.6333 20.535C32.4933 20.8733 32.1666 21.0716 31.8283 21.0716Z" fill="#647B64"/>
<path d="M35.4567 22.2266C35.3751 22.2266 35.3051 22.2149 35.2234 22.1916C34.7567 22.0632 34.4884 21.5849 34.6167 21.1182C35.0601 19.5316 34.6867 17.6416 33.6251 16.0549C32.5634 14.4682 30.9534 13.4066 29.3084 13.2082C28.8301 13.1499 28.4917 12.7182 28.5501 12.2399C28.6084 11.7616 29.0517 11.4116 29.5184 11.4816C31.6534 11.7382 33.7301 13.0916 35.0717 15.0982C36.4134 17.1049 36.8684 19.5316 36.2967 21.6082C36.1917 21.9699 35.8417 22.2266 35.4567 22.2266Z" fill="#647B64"/>
<path d="M29.9733 23.7432C29.9733 24.0932 29.6817 24.3849 29.3317 24.3849H14.0017C13.6517 24.3849 13.36 24.0932 13.36 23.7432C13.36 23.3932 13.6517 23.1016 14.0017 23.1016H14.865L15.1917 21.5616C15.495 20.0682 16.1367 18.7032 18.68 18.7032H24.665C27.2083 18.7032 27.8383 20.0799 28.1533 21.5616L28.48 23.1016H29.3433C29.6817 23.1016 29.9733 23.3932 29.9733 23.7432Z" fill="#647B64"/>
<path d="M30.3348 28.5616C30.2065 27.1616 29.8332 25.6566 27.1032 25.6566H16.2298C13.4998 25.6566 13.1265 27.1616 12.9982 28.5616L12.5198 33.7532C12.4615 34.3949 12.6715 35.0482 13.1148 35.5382C13.5698 36.0282 14.1998 36.3082 14.8882 36.3082H16.4865C17.8632 36.3082 18.1315 35.5149 18.3065 35.0016L18.4815 34.4882C18.6798 33.9049 18.7265 33.7532 19.4965 33.7532H23.8598C24.6298 33.7532 24.6532 33.8349 24.8748 34.4882L25.0498 35.0016C25.2248 35.5266 25.4815 36.3082 26.8698 36.3082H28.4682C29.1448 36.3082 29.7865 36.0282 30.2415 35.5382C30.6848 35.0482 30.8948 34.4066 30.8365 33.7532L30.3348 28.5616ZM19.1115 30.3349H16.5565C16.2065 30.3349 15.9148 30.0432 15.9148 29.6932C15.9148 29.3432 16.2065 29.0516 16.5565 29.0516H19.1115C19.4615 29.0516 19.7532 29.3432 19.7532 29.6932C19.7532 30.0432 19.4615 30.3349 19.1115 30.3349ZM26.7765 30.3349H24.2215C23.8715 30.3349 23.5798 30.0432 23.5798 29.6932C23.5798 29.3432 23.8715 29.0516 24.2215 29.0516H26.7765C27.1265 29.0516 27.4182 29.3432 27.4182 29.6932C27.4182 30.0432 27.1265 30.3349 26.7765 30.3349Z" fill="#647B64"/>
</svg>
