<svg width="188" height="36" viewBox="0 0 188 36" fill="none" xmlns="http://www.w3.org/2000/svg">
<path d="M20.5284 24.1837C19.8277 24.1837 19.1981 23.7558 18.9403 23.1042L17.9159 20.5153C17.6581 19.8638 17.0285 19.4358 16.3279 19.4358H9.31413C8.60171 19.4358 7.96413 19.878 7.71451 20.5453L6.76841 23.0743C6.51879 23.7415 5.88121 24.1837 5.16879 24.1837H2.56852C1.34805 24.1837 0.52147 22.9406 0.993591 21.8152L9.70557 1.04722C9.97171 0.412797 10.5925 0 11.2805 0H14.675C15.3652 0 15.9876 0.415458 16.2523 1.05291L24.8763 21.8209C25.3433 22.9456 24.5168 24.1837 23.299 24.1837H20.5284ZM14.4653 10.8404C13.9235 9.34435 11.8105 9.33668 11.2579 10.8287L10.6555 12.4551C10.2424 13.5706 11.0676 14.7562 12.2571 14.7562H13.4485C14.6327 14.7562 15.4575 13.5802 15.0543 12.4668L14.4653 10.8404Z" fill="#647B64"/>
<path d="M48.4016 25.3109C48.4016 26.7683 48.1511 28.1005 47.6502 29.3074C47.172 30.4915 46.4774 31.5163 45.5665 32.3816C44.6557 33.2242 43.5512 33.8846 42.2532 34.3628C40.978 34.841 39.5548 35.0801 37.9835 35.0801C36.3895 35.0801 34.9548 34.841 33.6796 34.3628C32.4044 33.8846 31.3227 33.2242 30.4346 32.3816C29.5465 31.5163 28.8634 30.4915 28.3851 29.3074C27.9069 28.1005 27.6678 26.7683 27.6678 25.3109V18.2062C27.6678 17.2629 26.9032 16.4983 25.9599 16.4983H25.8575H20.5556C19.7922 16.4983 19.1215 15.9917 18.9128 15.2573L18.1069 12.4222C17.797 11.3317 18.6161 10.2473 19.7498 10.2473H31.7668C32.71 10.2473 33.4747 11.012 33.4747 11.9552V24.8327C33.4747 25.4931 33.5544 26.1193 33.7138 26.7114C33.8959 27.3035 34.1578 27.8386 34.4994 28.3168C34.8638 28.7723 35.3306 29.1366 35.8999 29.4099C36.4919 29.6831 37.1979 29.8198 38.0177 29.8198C38.8374 29.8198 39.532 29.6831 40.1013 29.4099C40.6934 29.1366 41.1716 28.7723 41.5359 28.3168C41.9003 27.8386 42.1621 27.3035 42.3215 26.7114C42.4809 26.1193 42.5606 25.4931 42.5606 24.8327V11.9552C42.5606 11.012 43.3253 10.2473 44.2685 10.2473H46.6937C47.637 10.2473 48.4016 11.012 48.4016 11.9552V25.3109Z" fill="#647B64"/>
<path d="M64.726 12.8976C64.9896 12.2918 65.5873 11.9 66.2479 11.9C66.9106 11.9 67.5099 12.2944 67.7721 12.903L72.6501 24.2264C73.0237 25.0936 72.3877 26.06 71.4434 26.06C70.9092 26.06 70.4282 25.7366 70.2267 25.2419L69.9 24.44C69.5009 23.4605 68.5485 22.82 67.4907 22.82H64.8418C63.7907 22.82 62.8462 23.4624 62.46 24.44L62.1395 25.2513C61.9467 25.7394 61.4752 26.06 60.9504 26.06C60.0296 26.06 59.4107 25.1159 59.7781 24.2715L64.726 12.8976ZM66.1671 20.66C67.2267 20.66 67.9588 19.6001 67.5838 18.6091C67.0916 17.3086 65.2538 17.3031 64.7538 18.6006C64.3713 19.5929 65.1037 20.66 66.1671 20.66Z" fill="#647B64"/>
<path d="M73.6577 13.5792C73.4123 12.7399 74.0417 11.9 74.9162 11.9C75.5117 11.9 76.0324 12.3013 76.1842 12.8772L78.6615 22.2804C78.6646 22.292 78.6751 22.3 78.6871 22.3C78.6987 22.3 78.709 22.2924 78.7124 22.2812L81.4542 13.1418C81.6753 12.4048 82.3537 11.9 83.1231 11.9C83.896 11.9 84.5765 12.4092 84.7947 13.1506L87.4811 22.2811C87.4844 22.2923 87.4948 22.3 87.5065 22.3C87.5184 22.3 87.5289 22.292 87.532 22.2805L90.0725 12.8442C90.2225 12.2871 90.7276 11.9 91.3045 11.9C92.1554 11.9 92.7678 12.7172 92.529 13.5339L89.2124 24.8777C89.0075 25.5784 88.365 26.06 87.6349 26.06C86.9161 26.06 86.2807 25.5929 86.0662 24.9069L83.1127 15.4591C83.1091 15.4478 83.0986 15.44 83.0867 15.44C83.0748 15.44 83.0643 15.4478 83.0608 15.4591L80.1072 24.9069C79.8927 25.5929 79.2573 26.06 78.5385 26.06C77.8085 26.06 77.1659 25.5784 76.961 24.8777L73.6577 13.5792Z" fill="#647B64"/>
<path d="M94.6848 14.9C94.6848 13.2432 96.028 11.9 97.6848 11.9H102.965C103.572 11.9 104.065 12.3925 104.065 13C104.065 13.6076 103.572 14.1 102.965 14.1H99.0048C98.0107 14.1 97.2048 14.9059 97.2048 15.9C97.2048 16.8942 98.0107 17.7 99.0048 17.7H102.645C103.23 17.7 103.705 18.1746 103.705 18.76C103.705 19.3455 103.23 19.82 102.645 19.82H99.2048C98.1003 19.82 97.2048 20.7155 97.2048 21.82C97.2048 22.9246 98.1003 23.82 99.2048 23.82H103.305C103.923 23.82 104.425 24.3215 104.425 24.94C104.425 25.5586 103.923 26.06 103.305 26.06H97.6848C96.028 26.06 94.6848 24.7169 94.6848 23.06V14.9Z" fill="#647B64"/>
<path d="M115.008 13.8767C114.541 14.3894 113.695 14.3543 113.073 14.0481C113.04 14.0318 113.006 14.0158 112.972 14C112.492 13.76 112.005 13.64 111.512 13.64C111.219 13.64 110.925 13.68 110.632 13.76C110.339 13.8267 110.072 13.94 109.832 14.1C109.592 14.2467 109.392 14.4467 109.232 14.7C109.085 14.94 109.012 15.2334 109.012 15.58C109.012 15.9 109.079 16.1734 109.212 16.4C109.345 16.6267 109.525 16.82 109.752 16.98C109.992 17.14 110.279 17.28 110.612 17.4C110.945 17.52 111.312 17.64 111.712 17.76C112.165 17.9067 112.632 18.0734 113.112 18.26C113.605 18.4467 114.052 18.6934 114.452 19C114.865 19.3067 115.199 19.6934 115.452 20.16C115.719 20.6267 115.852 21.2067 115.852 21.9C115.852 22.66 115.712 23.3267 115.432 23.9C115.152 24.46 114.779 24.9267 114.312 25.3C113.845 25.6734 113.299 25.9534 112.672 26.14C112.045 26.3267 111.385 26.42 110.692 26.42C109.772 26.42 108.872 26.2534 107.992 25.92C107.49 25.7225 107.041 25.4729 106.643 25.1714C106.142 24.7914 106.192 24.0637 106.652 23.6346C107.172 23.1492 108.004 23.2487 108.604 23.6316C108.733 23.714 108.869 23.7901 109.012 23.86C109.599 24.14 110.172 24.28 110.732 24.28C111.025 24.28 111.325 24.2467 111.632 24.18C111.939 24.1 112.212 23.9734 112.452 23.8C112.705 23.6267 112.905 23.4134 113.052 23.16C113.212 22.8934 113.292 22.5667 113.292 22.18C113.292 21.8067 113.205 21.5 113.032 21.26C112.859 21.0067 112.625 20.7934 112.332 20.62C112.039 20.4334 111.692 20.2734 111.292 20.14C110.892 20.0067 110.472 19.8667 110.032 19.72C109.605 19.5867 109.179 19.4267 108.752 19.24C108.325 19.0534 107.939 18.8067 107.592 18.5C107.259 18.1934 106.985 17.82 106.772 17.38C106.559 16.9267 106.452 16.3667 106.452 15.7C106.452 14.98 106.599 14.36 106.892 13.84C107.199 13.32 107.592 12.8934 108.072 12.56C108.565 12.2134 109.119 11.96 109.732 11.8C110.359 11.6267 110.992 11.54 111.632 11.54C112.352 11.54 113.079 11.6667 113.812 11.92C114.189 12.0481 114.541 12.2085 114.868 12.4013C115.394 12.7124 115.42 13.4246 115.008 13.8767Z" fill="#647B64"/>
<path d="M117.696 18.94C117.696 17.8067 117.883 16.7867 118.256 15.88C118.643 14.96 119.17 14.18 119.836 13.54C120.516 12.9 121.316 12.4067 122.236 12.06C123.17 11.7134 124.183 11.54 125.276 11.54C126.383 11.54 127.403 11.7134 128.336 12.06C129.27 12.4067 130.076 12.9 130.756 13.54C131.436 14.18 131.963 14.96 132.336 15.88C132.723 16.7867 132.916 17.8067 132.916 18.94C132.916 20.0467 132.723 21.06 132.336 21.98C131.963 22.8867 131.436 23.6734 130.756 24.34C130.076 24.9934 129.27 25.5067 128.336 25.88C127.403 26.24 126.383 26.42 125.276 26.42C124.183 26.42 123.17 26.24 122.236 25.88C121.316 25.5067 120.516 24.9934 119.836 24.34C119.17 23.6734 118.643 22.8867 118.256 21.98C117.883 21.06 117.696 20.0467 117.696 18.94ZM120.436 18.94C120.436 19.7 120.55 20.4 120.776 21.04C121.016 21.6667 121.35 22.2134 121.776 22.68C122.216 23.1467 122.73 23.5134 123.316 23.78C123.916 24.0334 124.576 24.16 125.296 24.16C126.016 24.16 126.676 24.0334 127.276 23.78C127.876 23.5134 128.39 23.1467 128.816 22.68C129.256 22.2134 129.59 21.6667 129.816 21.04C130.056 20.4 130.176 19.7 130.176 18.94C130.176 18.2067 130.056 17.5267 129.816 16.9C129.59 16.2734 129.263 15.7267 128.836 15.26C128.41 14.7934 127.896 14.4267 127.296 14.16C126.696 13.8934 126.03 13.76 125.296 13.76C124.563 13.76 123.896 13.8934 123.296 14.16C122.71 14.4267 122.203 14.7934 121.776 15.26C121.35 15.7267 121.016 16.2734 120.776 16.9C120.55 17.5267 120.436 18.2067 120.436 18.94Z" fill="#647B64"/>
<path d="M135.349 14.219C135.349 12.9383 136.387 11.9 137.668 11.9C138.641 11.9 139.511 12.5081 139.846 13.4224L142.959 21.9319C142.965 21.9488 142.981 21.96 142.999 21.96C143.017 21.96 143.033 21.9487 143.039 21.9318L146.113 13.4354C146.447 12.5139 147.322 11.9 148.302 11.9C149.587 11.9 150.629 12.942 150.629 14.2272V24.81C150.629 25.5004 150.069 26.06 149.379 26.06C148.689 26.06 148.129 25.5004 148.129 24.81V14.7037C148.129 14.6906 148.118 14.68 148.105 14.68C148.095 14.68 148.087 14.6861 148.083 14.6953L144.099 25.2389C143.912 25.733 143.439 26.06 142.911 26.06C142.381 26.06 141.906 25.7304 141.721 25.2334L137.795 14.6954C137.791 14.6862 137.782 14.68 137.773 14.68C137.759 14.68 137.749 14.6906 137.749 14.7036V24.86C137.749 25.5228 137.212 26.06 136.549 26.06C135.886 26.06 135.349 25.5228 135.349 24.86V14.219Z" fill="#647B64"/>
<path d="M153.747 14.9C153.747 13.2432 155.09 11.9 156.747 11.9H162.027C162.635 11.9 163.127 12.3925 163.127 13C163.127 13.6076 162.635 14.1 162.027 14.1H158.067C157.073 14.1 156.267 14.9059 156.267 15.9C156.267 16.8942 157.073 17.7 158.067 17.7H161.707C162.293 17.7 162.767 18.1746 162.767 18.76C162.767 19.3455 162.293 19.82 161.707 19.82H158.267C157.163 19.82 156.267 20.7155 156.267 21.82C156.267 22.9246 157.163 23.82 158.267 23.82H162.367C162.986 23.82 163.487 24.3215 163.487 24.94C163.487 25.5586 162.986 26.06 162.367 26.06H156.747C155.09 26.06 153.747 24.7169 153.747 23.06V14.9Z" fill="#647B64"/>
<path d="M182.234 20.86C182.234 21.7134 182.088 22.4867 181.794 23.18C181.501 23.86 181.101 24.44 180.594 24.92C180.088 25.4 179.488 25.7734 178.794 26.04C178.101 26.2934 177.348 26.42 176.534 26.42C175.721 26.42 174.968 26.2934 174.274 26.04C173.581 25.7734 172.974 25.4 172.454 24.92C171.948 24.44 171.548 23.86 171.254 23.18C170.974 22.4867 170.834 21.7134 170.834 20.86V13.16C170.834 12.4642 171.398 11.9 172.094 11.9C172.79 11.9 173.354 12.4642 173.354 13.16V20.76C173.354 21.1734 173.408 21.5867 173.514 22C173.621 22.4 173.794 22.76 174.034 23.08C174.288 23.4 174.614 23.66 175.014 23.86C175.428 24.06 175.934 24.16 176.534 24.16C177.134 24.16 177.634 24.06 178.034 23.86C178.448 23.66 178.774 23.4 179.014 23.08C179.268 22.76 179.448 22.4 179.554 22C179.661 21.5867 179.714 21.1734 179.714 20.76V13.16C179.714 12.4642 180.279 11.9 180.974 11.9C181.67 11.9 182.234 12.4642 182.234 13.16V20.86Z" fill="#647B64"/>
<path d="M185.232 13.16C185.232 12.4642 185.796 11.9 186.492 11.9C187.188 11.9 187.752 12.4642 187.752 13.16V24.8C187.752 25.4959 187.188 26.06 186.492 26.06C185.796 26.06 185.232 25.4959 185.232 24.8V13.16Z" fill="#647B64"/>
</svg>
