<svg width="48" height="48" viewBox="0 0 48 48" fill="none" xmlns="http://www.w3.org/2000/svg">
<rect width="48" height="48" rx="8" fill="white"/>
<path d="M24 30.75C23.59 30.75 23.25 30.41 23.25 30V29C23.25 28.59 23.59 28.25 24 28.25C24.41 28.25 24.75 28.59 24.75 29V30C24.75 30.41 24.41 30.75 24 30.75Z" fill="#647B64"/>
<path d="M24 34.75C23.59 34.75 23.25 34.41 23.25 34V33C23.25 32.59 23.59 32.25 24 32.25C24.41 32.25 24.75 32.59 24.75 33V34C24.75 34.41 24.41 34.75 24 34.75Z" fill="#647B64"/>
<path d="M14 34.75C13.94 34.75 13.88 34.74 13.82 34.73C13.42 34.63 13.17 34.22 13.27 33.82L14.27 29.82C14.37 29.42 14.77 29.17 15.18 29.27C15.58 29.37 15.83 29.78 15.73 30.18L14.73 34.18C14.64 34.52 14.34 34.75 14 34.75Z" fill="#647B64"/>
<path d="M33.7526 34.5026C33.4126 34.5026 33.1126 34.2726 33.0226 33.9326L32.0226 29.9326C31.9226 29.5326 32.1626 29.1226 32.5726 29.0226C32.9726 28.9226 33.3826 29.1626 33.4826 29.5726L34.4826 33.5726C34.5826 33.9726 34.3426 34.3826 33.9326 34.4826C33.8726 34.4926 33.8126 34.5026 33.7526 34.5026Z" fill="#647B64"/>
<path d="M31.14 17.3C31.14 17.6 30.89 17.84 30.6 17.84H17.53C17.23 17.84 16.99 17.59 16.99 17.3C16.99 17 17.24 16.76 17.53 16.76H18.27L18.55 15.45C18.81 14.17 19.35 13 21.51 13H26.6C28.76 13 29.31 14.17 29.57 15.44L29.85 16.75H30.59C30.89 16.75 31.14 17 31.14 17.3Z" fill="#647B64"/>
<path d="M31.45 21.4C31.34 20.2 31.02 18.93 28.69 18.93H19.43C17.1 18.93 16.79 20.21 16.67 21.4L16.26 25.82C16.21 26.37 16.39 26.92 16.77 27.34C17.16 27.76 17.7 28 18.28 28H19.64C20.82 28 21.04 27.33 21.19 26.88L21.34 26.44C21.51 25.94 21.55 25.82 22.2 25.82H25.92C26.57 25.82 26.59 25.89 26.78 26.44L26.93 26.88C27.07 27.33 27.3 28 28.47 28H29.83C30.4 28 30.95 27.76 31.34 27.34C31.72 26.93 31.9 26.37 31.85 25.82L31.45 21.4ZM21.88 22.92H19.71C19.41 22.92 19.17 22.67 19.17 22.38C19.17 22.09 19.42 21.84 19.71 21.84H21.89C22.19 21.84 22.43 22.09 22.43 22.38C22.43 22.67 22.18 22.92 21.88 22.92ZM28.41 22.92H26.23C25.93 22.92 25.69 22.67 25.69 22.38C25.69 22.09 25.94 21.84 26.23 21.84H28.41C28.71 21.84 28.95 22.09 28.95 22.38C28.95 22.67 28.71 22.92 28.41 22.92Z" fill="#647B64"/>
</svg>
