<svg width="48" height="48" viewBox="0 0 48 48" fill="none" xmlns="http://www.w3.org/2000/svg">
<rect width="48" height="48" rx="8" fill="white"/>
<path d="M33.63 26.66L33.22 28.52C32.51 31.72 30 34 26.38 34H21.62C18 34 15.49 31.72 14.78 28.52L14.37 26.66C14.17 25.75 14.71 24.72 15.58 24.37L17 23.8L22.51 21.59C22.99 21.4 23.5 21.3 24 21.3C24.5 21.3 25.01 21.4 25.49 21.59L31 23.8L32.42 24.37C33.29 24.72 33.83 25.75 33.63 26.66Z" fill="#647B64"/>
<path d="M31 20V21.44C31 21.79 30.64 22.04 30.31 21.9L26.04 20.19C24.73 19.68 23.27 19.68 21.95 20.2L17.69 21.91C17.36 22.05 17 21.8 17 21.45V20C17 18.35 18.35 17 20 17H28C29.65 17 31 18.35 31 20Z" fill="#647B64"/>
<path d="M26.5 17H21.5V15C21.5 14.45 21.95 14 22.5 14H25.5C26.05 14 26.5 14.45 26.5 15V17Z" fill="#647B64"/>
</svg>
